<?xml version="1.0" encoding="utf-8" standalone="no"?>
<!DOCTYPE svg PUBLIC "-//W3C//DTD SVG 1.1//EN"
  "http://www.w3.org/Graphics/SVG/1.1/DTD/svg11.dtd">
<svg height="360pt" version="1.1" viewBox="0 0 455.105 360" width="455.105pt" xmlns="http://www.w3.org/2000/svg" xmlns:xlink="http://www.w3.org/1999/xlink">
 <metadata>
  <rdf:RDF xmlns:cc="http://creativecommons.org/ns#" xmlns:dc="http://purl.org/dc/elements/1.1/" xmlns:rdf="http://www.w3.org/1999/02/22-rdf-syntax-ns#">
   <cc:Work>
    <dc:type rdf:resource="http://purl.org/dc/dcmitype/StillImage"/>
    <dc:date>2024-07-08T14:38:58.203283</dc:date>
    <dc:format>image/svg+xml</dc:format>
    <dc:creator>
     <cc:Agent>
      <dc:title>Matplotlib v3.4.3, https://matplotlib.org/</dc:title>
     </cc:Agent>
    </dc:creator>
   </cc:Work>
  </rdf:RDF>
 </metadata>
 <defs>
  <style type="text/css">*{stroke-linecap:butt;stroke-linejoin:round;}</style>
 </defs>
 <g id="figure_1">
  <g id="patch_1">
   <path d="M 0 360 
L 455.105 360 
L 455.105 0 
L 0 0 
z
" style="fill:#ffffff;"/>
  </g>
  <g id="axes_1">
   <g id="patch_2">
    <path d="M 58.434218 319.652 
L 355.44895 319.652 
L 355.44895 16.848 
L 58.434218 16.848 
z
" style="fill:#ffffff;"/>
   </g>
   <g id="matplotlib.axis_1">
    <g id="xtick_1">
     <g id="text_1">
      <!-- 20 -->
      <g style="fill:#262626;" transform="translate(80.858584 339.387672)scale(0.143 -0.143)">
       <defs>
        <path d="M 3222 541 
L 3222 0 
L 194 0 
Q 188 203 259 391 
Q 375 700 629 1000 
Q 884 1300 1366 1694 
Q 2113 2306 2375 2664 
Q 2638 3022 2638 3341 
Q 2638 3675 2398 3904 
Q 2159 4134 1775 4134 
Q 1369 4134 1125 3890 
Q 881 3647 878 3216 
L 300 3275 
Q 359 3922 746 4261 
Q 1134 4600 1788 4600 
Q 2447 4600 2831 4234 
Q 3216 3869 3216 3328 
Q 3216 3053 3103 2787 
Q 2991 2522 2730 2228 
Q 2469 1934 1863 1422 
Q 1356 997 1212 845 
Q 1069 694 975 541 
L 3222 541 
z
" id="ArialMT-32" transform="scale(0.015625)"/>
        <path d="M 266 2259 
Q 266 3072 433 3567 
Q 600 4063 929 4331 
Q 1259 4600 1759 4600 
Q 2128 4600 2406 4451 
Q 2684 4303 2865 4023 
Q 3047 3744 3150 3342 
Q 3253 2941 3253 2259 
Q 3253 1453 3087 958 
Q 2922 463 2592 192 
Q 2263 -78 1759 -78 
Q 1097 -78 719 397 
Q 266 969 266 2259 
z
M 844 2259 
Q 844 1131 1108 757 
Q 1372 384 1759 384 
Q 2147 384 2411 759 
Q 2675 1134 2675 2259 
Q 2675 3391 2411 3762 
Q 2147 4134 1753 4134 
Q 1366 4134 1134 3806 
Q 844 3388 844 2259 
z
" id="ArialMT-30" transform="scale(0.015625)"/>
       </defs>
       <use xlink:href="#ArialMT-32"/>
       <use x="55.615234" xlink:href="#ArialMT-30"/>
      </g>
     </g>
    </g>
    <g id="xtick_2">
     <g id="text_2">
      <!-- 40 -->
      <g style="fill:#262626;" transform="translate(148.361932 339.387672)scale(0.143 -0.143)">
       <defs>
        <path d="M 2069 0 
L 2069 1097 
L 81 1097 
L 81 1613 
L 2172 4581 
L 2631 4581 
L 2631 1613 
L 3250 1613 
L 3250 1097 
L 2631 1097 
L 2631 0 
L 2069 0 
z
M 2069 1613 
L 2069 3678 
L 634 1613 
L 2069 1613 
z
" id="ArialMT-34" transform="scale(0.015625)"/>
       </defs>
       <use xlink:href="#ArialMT-34"/>
       <use x="55.615234" xlink:href="#ArialMT-30"/>
      </g>
     </g>
    </g>
    <g id="xtick_3">
     <g id="text_3">
      <!-- 60 -->
      <g style="fill:#262626;" transform="translate(215.86528 339.387672)scale(0.143 -0.143)">
       <defs>
        <path d="M 3184 3459 
L 2625 3416 
Q 2550 3747 2413 3897 
Q 2184 4138 1850 4138 
Q 1581 4138 1378 3988 
Q 1113 3794 959 3422 
Q 806 3050 800 2363 
Q 1003 2672 1297 2822 
Q 1591 2972 1913 2972 
Q 2475 2972 2870 2558 
Q 3266 2144 3266 1488 
Q 3266 1056 3080 686 
Q 2894 316 2569 119 
Q 2244 -78 1831 -78 
Q 1128 -78 684 439 
Q 241 956 241 2144 
Q 241 3472 731 4075 
Q 1159 4600 1884 4600 
Q 2425 4600 2770 4297 
Q 3116 3994 3184 3459 
z
M 888 1484 
Q 888 1194 1011 928 
Q 1134 663 1356 523 
Q 1578 384 1822 384 
Q 2178 384 2434 671 
Q 2691 959 2691 1453 
Q 2691 1928 2437 2201 
Q 2184 2475 1800 2475 
Q 1419 2475 1153 2201 
Q 888 1928 888 1484 
z
" id="ArialMT-36" transform="scale(0.015625)"/>
       </defs>
       <use xlink:href="#ArialMT-36"/>
       <use x="55.615234" xlink:href="#ArialMT-30"/>
      </g>
     </g>
    </g>
    <g id="xtick_4">
     <g id="text_4">
      <!-- 80 -->
      <g style="fill:#262626;" transform="translate(283.368629 339.387672)scale(0.143 -0.143)">
       <defs>
        <path d="M 1131 2484 
Q 781 2613 612 2850 
Q 444 3088 444 3419 
Q 444 3919 803 4259 
Q 1163 4600 1759 4600 
Q 2359 4600 2725 4251 
Q 3091 3903 3091 3403 
Q 3091 3084 2923 2848 
Q 2756 2613 2416 2484 
Q 2838 2347 3058 2040 
Q 3278 1734 3278 1309 
Q 3278 722 2862 322 
Q 2447 -78 1769 -78 
Q 1091 -78 675 323 
Q 259 725 259 1325 
Q 259 1772 486 2073 
Q 713 2375 1131 2484 
z
M 1019 3438 
Q 1019 3113 1228 2906 
Q 1438 2700 1772 2700 
Q 2097 2700 2305 2904 
Q 2513 3109 2513 3406 
Q 2513 3716 2298 3927 
Q 2084 4138 1766 4138 
Q 1444 4138 1231 3931 
Q 1019 3725 1019 3438 
z
M 838 1322 
Q 838 1081 952 856 
Q 1066 631 1291 507 
Q 1516 384 1775 384 
Q 2178 384 2440 643 
Q 2703 903 2703 1303 
Q 2703 1709 2433 1975 
Q 2163 2241 1756 2241 
Q 1359 2241 1098 1978 
Q 838 1716 838 1322 
z
" id="ArialMT-38" transform="scale(0.015625)"/>
       </defs>
       <use xlink:href="#ArialMT-38"/>
       <use x="55.615234" xlink:href="#ArialMT-30"/>
      </g>
     </g>
    </g>
    <g id="text_5">
     <!-- P (Winning Risky Lottery) -->
     <g style="fill:#262626;" transform="translate(119.091646 357.586109)scale(0.156 -0.156)">
      <defs>
       <path d="M 494 0 
L 494 4581 
L 2222 4581 
Q 2678 4581 2919 4538 
Q 3256 4481 3484 4323 
Q 3713 4166 3852 3881 
Q 3991 3597 3991 3256 
Q 3991 2672 3619 2267 
Q 3247 1863 2275 1863 
L 1100 1863 
L 1100 0 
L 494 0 
z
M 1100 2403 
L 2284 2403 
Q 2872 2403 3119 2622 
Q 3366 2841 3366 3238 
Q 3366 3525 3220 3729 
Q 3075 3934 2838 4000 
Q 2684 4041 2272 4041 
L 1100 4041 
L 1100 2403 
z
" id="ArialMT-50" transform="scale(0.015625)"/>
       <path id="ArialMT-20" transform="scale(0.015625)"/>
       <path d="M 1497 -1347 
Q 1031 -759 709 28 
Q 388 816 388 1659 
Q 388 2403 628 3084 
Q 909 3875 1497 4659 
L 1900 4659 
Q 1522 4009 1400 3731 
Q 1209 3300 1100 2831 
Q 966 2247 966 1656 
Q 966 153 1900 -1347 
L 1497 -1347 
z
" id="ArialMT-28" transform="scale(0.015625)"/>
       <path d="M 1294 0 
L 78 4581 
L 700 4581 
L 1397 1578 
Q 1509 1106 1591 641 
Q 1766 1375 1797 1488 
L 2669 4581 
L 3400 4581 
L 4056 2263 
Q 4303 1400 4413 641 
Q 4500 1075 4641 1638 
L 5359 4581 
L 5969 4581 
L 4713 0 
L 4128 0 
L 3163 3491 
Q 3041 3928 3019 4028 
Q 2947 3713 2884 3491 
L 1913 0 
L 1294 0 
z
" id="ArialMT-57" transform="scale(0.015625)"/>
       <path d="M 425 3934 
L 425 4581 
L 988 4581 
L 988 3934 
L 425 3934 
z
M 425 0 
L 425 3319 
L 988 3319 
L 988 0 
L 425 0 
z
" id="ArialMT-69" transform="scale(0.015625)"/>
       <path d="M 422 0 
L 422 3319 
L 928 3319 
L 928 2847 
Q 1294 3394 1984 3394 
Q 2284 3394 2536 3286 
Q 2788 3178 2913 3003 
Q 3038 2828 3088 2588 
Q 3119 2431 3119 2041 
L 3119 0 
L 2556 0 
L 2556 2019 
Q 2556 2363 2490 2533 
Q 2425 2703 2258 2804 
Q 2091 2906 1866 2906 
Q 1506 2906 1245 2678 
Q 984 2450 984 1813 
L 984 0 
L 422 0 
z
" id="ArialMT-6e" transform="scale(0.015625)"/>
       <path d="M 319 -275 
L 866 -356 
Q 900 -609 1056 -725 
Q 1266 -881 1628 -881 
Q 2019 -881 2231 -725 
Q 2444 -569 2519 -288 
Q 2563 -116 2559 434 
Q 2191 0 1641 0 
Q 956 0 581 494 
Q 206 988 206 1678 
Q 206 2153 378 2554 
Q 550 2956 876 3175 
Q 1203 3394 1644 3394 
Q 2231 3394 2613 2919 
L 2613 3319 
L 3131 3319 
L 3131 450 
Q 3131 -325 2973 -648 
Q 2816 -972 2473 -1159 
Q 2131 -1347 1631 -1347 
Q 1038 -1347 672 -1080 
Q 306 -813 319 -275 
z
M 784 1719 
Q 784 1066 1043 766 
Q 1303 466 1694 466 
Q 2081 466 2343 764 
Q 2606 1063 2606 1700 
Q 2606 2309 2336 2618 
Q 2066 2928 1684 2928 
Q 1309 2928 1046 2623 
Q 784 2319 784 1719 
z
" id="ArialMT-67" transform="scale(0.015625)"/>
       <path d="M 503 0 
L 503 4581 
L 2534 4581 
Q 3147 4581 3465 4457 
Q 3784 4334 3975 4021 
Q 4166 3709 4166 3331 
Q 4166 2844 3850 2509 
Q 3534 2175 2875 2084 
Q 3116 1969 3241 1856 
Q 3506 1613 3744 1247 
L 4541 0 
L 3778 0 
L 3172 953 
Q 2906 1366 2734 1584 
Q 2563 1803 2427 1890 
Q 2291 1978 2150 2013 
Q 2047 2034 1813 2034 
L 1109 2034 
L 1109 0 
L 503 0 
z
M 1109 2559 
L 2413 2559 
Q 2828 2559 3062 2645 
Q 3297 2731 3419 2920 
Q 3541 3109 3541 3331 
Q 3541 3656 3305 3865 
Q 3069 4075 2559 4075 
L 1109 4075 
L 1109 2559 
z
" id="ArialMT-52" transform="scale(0.015625)"/>
       <path d="M 197 991 
L 753 1078 
Q 800 744 1014 566 
Q 1228 388 1613 388 
Q 2000 388 2187 545 
Q 2375 703 2375 916 
Q 2375 1106 2209 1216 
Q 2094 1291 1634 1406 
Q 1016 1563 777 1677 
Q 538 1791 414 1992 
Q 291 2194 291 2438 
Q 291 2659 392 2848 
Q 494 3038 669 3163 
Q 800 3259 1026 3326 
Q 1253 3394 1513 3394 
Q 1903 3394 2198 3281 
Q 2494 3169 2634 2976 
Q 2775 2784 2828 2463 
L 2278 2388 
Q 2241 2644 2061 2787 
Q 1881 2931 1553 2931 
Q 1166 2931 1000 2803 
Q 834 2675 834 2503 
Q 834 2394 903 2306 
Q 972 2216 1119 2156 
Q 1203 2125 1616 2013 
Q 2213 1853 2448 1751 
Q 2684 1650 2818 1456 
Q 2953 1263 2953 975 
Q 2953 694 2789 445 
Q 2625 197 2315 61 
Q 2006 -75 1616 -75 
Q 969 -75 630 194 
Q 291 463 197 991 
z
" id="ArialMT-73" transform="scale(0.015625)"/>
       <path d="M 425 0 
L 425 4581 
L 988 4581 
L 988 1969 
L 2319 3319 
L 3047 3319 
L 1778 2088 
L 3175 0 
L 2481 0 
L 1384 1697 
L 988 1316 
L 988 0 
L 425 0 
z
" id="ArialMT-6b" transform="scale(0.015625)"/>
       <path d="M 397 -1278 
L 334 -750 
Q 519 -800 656 -800 
Q 844 -800 956 -737 
Q 1069 -675 1141 -563 
Q 1194 -478 1313 -144 
Q 1328 -97 1363 -6 
L 103 3319 
L 709 3319 
L 1400 1397 
Q 1534 1031 1641 628 
Q 1738 1016 1872 1384 
L 2581 3319 
L 3144 3319 
L 1881 -56 
Q 1678 -603 1566 -809 
Q 1416 -1088 1222 -1217 
Q 1028 -1347 759 -1347 
Q 597 -1347 397 -1278 
z
" id="ArialMT-79" transform="scale(0.015625)"/>
       <path d="M 469 0 
L 469 4581 
L 1075 4581 
L 1075 541 
L 3331 541 
L 3331 0 
L 469 0 
z
" id="ArialMT-4c" transform="scale(0.015625)"/>
       <path d="M 213 1659 
Q 213 2581 725 3025 
Q 1153 3394 1769 3394 
Q 2453 3394 2887 2945 
Q 3322 2497 3322 1706 
Q 3322 1066 3130 698 
Q 2938 331 2570 128 
Q 2203 -75 1769 -75 
Q 1072 -75 642 372 
Q 213 819 213 1659 
z
M 791 1659 
Q 791 1022 1069 705 
Q 1347 388 1769 388 
Q 2188 388 2466 706 
Q 2744 1025 2744 1678 
Q 2744 2294 2464 2611 
Q 2184 2928 1769 2928 
Q 1347 2928 1069 2612 
Q 791 2297 791 1659 
z
" id="ArialMT-6f" transform="scale(0.015625)"/>
       <path d="M 1650 503 
L 1731 6 
Q 1494 -44 1306 -44 
Q 1000 -44 831 53 
Q 663 150 594 308 
Q 525 466 525 972 
L 525 2881 
L 113 2881 
L 113 3319 
L 525 3319 
L 525 4141 
L 1084 4478 
L 1084 3319 
L 1650 3319 
L 1650 2881 
L 1084 2881 
L 1084 941 
Q 1084 700 1114 631 
Q 1144 563 1211 522 
Q 1278 481 1403 481 
Q 1497 481 1650 503 
z
" id="ArialMT-74" transform="scale(0.015625)"/>
       <path d="M 2694 1069 
L 3275 997 
Q 3138 488 2766 206 
Q 2394 -75 1816 -75 
Q 1088 -75 661 373 
Q 234 822 234 1631 
Q 234 2469 665 2931 
Q 1097 3394 1784 3394 
Q 2450 3394 2872 2941 
Q 3294 2488 3294 1666 
Q 3294 1616 3291 1516 
L 816 1516 
Q 847 969 1125 678 
Q 1403 388 1819 388 
Q 2128 388 2347 550 
Q 2566 713 2694 1069 
z
M 847 1978 
L 2700 1978 
Q 2663 2397 2488 2606 
Q 2219 2931 1791 2931 
Q 1403 2931 1139 2672 
Q 875 2413 847 1978 
z
" id="ArialMT-65" transform="scale(0.015625)"/>
       <path d="M 416 0 
L 416 3319 
L 922 3319 
L 922 2816 
Q 1116 3169 1280 3281 
Q 1444 3394 1641 3394 
Q 1925 3394 2219 3213 
L 2025 2691 
Q 1819 2813 1613 2813 
Q 1428 2813 1281 2702 
Q 1134 2591 1072 2394 
Q 978 2094 978 1738 
L 978 0 
L 416 0 
z
" id="ArialMT-72" transform="scale(0.015625)"/>
       <path d="M 791 -1347 
L 388 -1347 
Q 1322 153 1322 1656 
Q 1322 2244 1188 2822 
Q 1081 3291 891 3722 
Q 769 4003 388 4659 
L 791 4659 
Q 1378 3875 1659 3084 
Q 1900 2403 1900 1659 
Q 1900 816 1576 28 
Q 1253 -759 791 -1347 
z
" id="ArialMT-29" transform="scale(0.015625)"/>
      </defs>
      <use xlink:href="#ArialMT-50"/>
      <use x="64.949219" xlink:href="#ArialMT-20"/>
      <use x="92.732422" xlink:href="#ArialMT-28"/>
      <use x="126.033203" xlink:href="#ArialMT-57"/>
      <use x="220.417969" xlink:href="#ArialMT-69"/>
      <use x="242.634766" xlink:href="#ArialMT-6e"/>
      <use x="298.25" xlink:href="#ArialMT-6e"/>
      <use x="353.865234" xlink:href="#ArialMT-69"/>
      <use x="376.082031" xlink:href="#ArialMT-6e"/>
      <use x="431.697266" xlink:href="#ArialMT-67"/>
      <use x="487.3125" xlink:href="#ArialMT-20"/>
      <use x="515.095703" xlink:href="#ArialMT-52"/>
      <use x="587.3125" xlink:href="#ArialMT-69"/>
      <use x="609.529297" xlink:href="#ArialMT-73"/>
      <use x="659.529297" xlink:href="#ArialMT-6b"/>
      <use x="709.529297" xlink:href="#ArialMT-79"/>
      <use x="759.529297" xlink:href="#ArialMT-20"/>
      <use x="787.3125" xlink:href="#ArialMT-4c"/>
      <use x="842.927734" xlink:href="#ArialMT-6f"/>
      <use x="898.542969" xlink:href="#ArialMT-74"/>
      <use x="926.326172" xlink:href="#ArialMT-74"/>
      <use x="954.109375" xlink:href="#ArialMT-65"/>
      <use x="1009.724609" xlink:href="#ArialMT-72"/>
      <use x="1043.025391" xlink:href="#ArialMT-79"/>
      <use x="1093.025391" xlink:href="#ArialMT-29"/>
     </g>
    </g>
   </g>
   <g id="matplotlib.axis_2">
    <g id="ytick_1">
     <g id="text_6">
      <!-- 0.0 -->
      <g style="fill:#262626;" transform="translate(29.057218 311.006018)scale(0.143 -0.143)">
       <defs>
        <path d="M 581 0 
L 581 641 
L 1222 641 
L 1222 0 
L 581 0 
z
" id="ArialMT-2e" transform="scale(0.015625)"/>
       </defs>
       <use xlink:href="#ArialMT-30"/>
       <use x="55.615234" xlink:href="#ArialMT-2e"/>
       <use x="83.398438" xlink:href="#ArialMT-30"/>
      </g>
     </g>
    </g>
    <g id="ytick_2">
     <g id="text_7">
      <!-- 0.2 -->
      <g style="fill:#262626;" transform="translate(29.057218 255.950745)scale(0.143 -0.143)">
       <use xlink:href="#ArialMT-30"/>
       <use x="55.615234" xlink:href="#ArialMT-2e"/>
       <use x="83.398438" xlink:href="#ArialMT-32"/>
      </g>
     </g>
    </g>
    <g id="ytick_3">
     <g id="text_8">
      <!-- 0.4 -->
      <g style="fill:#262626;" transform="translate(29.057218 200.895472)scale(0.143 -0.143)">
       <use xlink:href="#ArialMT-30"/>
       <use x="55.615234" xlink:href="#ArialMT-2e"/>
       <use x="83.398438" xlink:href="#ArialMT-34"/>
      </g>
     </g>
    </g>
    <g id="ytick_4">
     <g id="text_9">
      <!-- 0.6 -->
      <g style="fill:#262626;" transform="translate(29.057218 145.8402)scale(0.143 -0.143)">
       <use xlink:href="#ArialMT-30"/>
       <use x="55.615234" xlink:href="#ArialMT-2e"/>
       <use x="83.398438" xlink:href="#ArialMT-36"/>
      </g>
     </g>
    </g>
    <g id="ytick_5">
     <g id="text_10">
      <!-- 0.8 -->
      <g style="fill:#262626;" transform="translate(29.057218 90.784927)scale(0.143 -0.143)">
       <use xlink:href="#ArialMT-30"/>
       <use x="55.615234" xlink:href="#ArialMT-2e"/>
       <use x="83.398438" xlink:href="#ArialMT-38"/>
      </g>
     </g>
    </g>
    <g id="ytick_6">
     <g id="text_11">
      <!-- 1.0 -->
      <g style="fill:#262626;" transform="translate(29.057218 35.729654)scale(0.143 -0.143)">
       <defs>
        <path d="M 2384 0 
L 1822 0 
L 1822 3584 
Q 1619 3391 1289 3197 
Q 959 3003 697 2906 
L 697 3450 
Q 1169 3672 1522 3987 
Q 1875 4303 2022 4600 
L 2384 4600 
L 2384 0 
z
" id="ArialMT-31" transform="scale(0.015625)"/>
       </defs>
       <use xlink:href="#ArialMT-31"/>
       <use x="55.615234" xlink:href="#ArialMT-2e"/>
       <use x="83.398438" xlink:href="#ArialMT-30"/>
      </g>
     </g>
    </g>
    <g id="text_12">
     <!-- P (Choosing Risky Lottery) -->
     <g style="fill:#262626;" transform="translate(21.773905 260.875)rotate(-90)scale(0.156 -0.156)">
      <defs>
       <path d="M 3763 1606 
L 4369 1453 
Q 4178 706 3683 314 
Q 3188 -78 2472 -78 
Q 1731 -78 1267 223 
Q 803 525 561 1097 
Q 319 1669 319 2325 
Q 319 3041 592 3573 
Q 866 4106 1370 4382 
Q 1875 4659 2481 4659 
Q 3169 4659 3637 4309 
Q 4106 3959 4291 3325 
L 3694 3184 
Q 3534 3684 3231 3912 
Q 2928 4141 2469 4141 
Q 1941 4141 1586 3887 
Q 1231 3634 1087 3207 
Q 944 2781 944 2328 
Q 944 1744 1114 1308 
Q 1284 872 1643 656 
Q 2003 441 2422 441 
Q 2931 441 3284 734 
Q 3638 1028 3763 1606 
z
" id="ArialMT-43" transform="scale(0.015625)"/>
       <path d="M 422 0 
L 422 4581 
L 984 4581 
L 984 2938 
Q 1378 3394 1978 3394 
Q 2347 3394 2619 3248 
Q 2891 3103 3008 2847 
Q 3125 2591 3125 2103 
L 3125 0 
L 2563 0 
L 2563 2103 
Q 2563 2525 2380 2717 
Q 2197 2909 1863 2909 
Q 1613 2909 1392 2779 
Q 1172 2650 1078 2428 
Q 984 2206 984 1816 
L 984 0 
L 422 0 
z
" id="ArialMT-68" transform="scale(0.015625)"/>
      </defs>
      <use xlink:href="#ArialMT-50"/>
      <use x="64.949219" xlink:href="#ArialMT-20"/>
      <use x="92.732422" xlink:href="#ArialMT-28"/>
      <use x="126.033203" xlink:href="#ArialMT-43"/>
      <use x="198.25" xlink:href="#ArialMT-68"/>
      <use x="253.865234" xlink:href="#ArialMT-6f"/>
      <use x="309.480469" xlink:href="#ArialMT-6f"/>
      <use x="365.095703" xlink:href="#ArialMT-73"/>
      <use x="415.095703" xlink:href="#ArialMT-69"/>
      <use x="437.3125" xlink:href="#ArialMT-6e"/>
      <use x="492.927734" xlink:href="#ArialMT-67"/>
      <use x="548.542969" xlink:href="#ArialMT-20"/>
      <use x="576.326172" xlink:href="#ArialMT-52"/>
      <use x="648.542969" xlink:href="#ArialMT-69"/>
      <use x="670.759766" xlink:href="#ArialMT-73"/>
      <use x="720.759766" xlink:href="#ArialMT-6b"/>
      <use x="770.759766" xlink:href="#ArialMT-79"/>
      <use x="820.759766" xlink:href="#ArialMT-20"/>
      <use x="848.542969" xlink:href="#ArialMT-4c"/>
      <use x="904.158203" xlink:href="#ArialMT-6f"/>
      <use x="959.773438" xlink:href="#ArialMT-74"/>
      <use x="987.556641" xlink:href="#ArialMT-74"/>
      <use x="1015.339844" xlink:href="#ArialMT-65"/>
      <use x="1070.955078" xlink:href="#ArialMT-72"/>
      <use x="1104.255859" xlink:href="#ArialMT-79"/>
      <use x="1154.255859" xlink:href="#ArialMT-29"/>
     </g>
    </g>
   </g>
   <g id="PolyCollection_1">
    <defs>
     <path d="M 88.810725 -171.751164 
L 88.810725 -116.875171 
L 91.197207 -119.231003 
L 93.583689 -121.647171 
L 95.970171 -123.751051 
L 98.356653 -125.842571 
L 100.743135 -128.146146 
L 103.129617 -130.550558 
L 105.516099 -133.002446 
L 107.902581 -135.514442 
L 110.289063 -138.325803 
L 112.675545 -141.187009 
L 115.062027 -143.555735 
L 117.448509 -146.305052 
L 119.834991 -149.246231 
L 122.221473 -152.157426 
L 124.607955 -155.025525 
L 126.994437 -157.994128 
L 129.380919 -161.068192 
L 131.767401 -163.874288 
L 134.153883 -166.733683 
L 136.540365 -169.566312 
L 138.926847 -172.373617 
L 141.313329 -175.401628 
L 143.699811 -178.187622 
L 146.086293 -181.426351 
L 148.472775 -184.383577 
L 150.859257 -186.903373 
L 153.245739 -190.039564 
L 155.632221 -192.690975 
L 158.018703 -195.572217 
L 160.405185 -198.594254 
L 162.791667 -201.532825 
L 165.178149 -204.141143 
L 167.564631 -207.419297 
L 169.951113 -210.203861 
L 172.337595 -213.136978 
L 174.724077 -215.506679 
L 177.110559 -218.028793 
L 179.497041 -220.415528 
L 181.883523 -223.005698 
L 184.270005 -225.127194 
L 186.656487 -227.292179 
L 189.042969 -229.752506 
L 191.429451 -232.041536 
L 193.815933 -234.295628 
L 196.202415 -236.530277 
L 198.588897 -238.739072 
L 200.975379 -240.916868 
L 203.361861 -243.072394 
L 205.748343 -245.276974 
L 208.134825 -247.286793 
L 210.521307 -249.068862 
L 212.907789 -251.079591 
L 215.294271 -252.772719 
L 217.680753 -254.448222 
L 220.067235 -256.235679 
L 222.453717 -258.057693 
L 224.840199 -259.525791 
L 227.226681 -261.22493 
L 229.613163 -262.871207 
L 231.999645 -264.636861 
L 234.386127 -266.139363 
L 236.772609 -267.610676 
L 239.159091 -269.08109 
L 241.545573 -270.479804 
L 243.932055 -271.877605 
L 246.318537 -273.255694 
L 248.705019 -274.696494 
L 251.091501 -276.158193 
L 253.477983 -277.595737 
L 255.864465 -278.991198 
L 258.250947 -280.23809 
L 260.637429 -281.396333 
L 263.023911 -282.531399 
L 265.410393 -283.605814 
L 267.796875 -284.727765 
L 270.183357 -285.796757 
L 272.569839 -286.817241 
L 274.956321 -287.875127 
L 277.342803 -288.88696 
L 279.729285 -289.867866 
L 282.115767 -290.783922 
L 284.502249 -291.670304 
L 286.888731 -292.645436 
L 289.275213 -293.492239 
L 291.661695 -294.432003 
L 294.048177 -295.373841 
L 296.434659 -296.249865 
L 298.821141 -297.108277 
L 301.207623 -297.870825 
L 303.594105 -298.667636 
L 305.980587 -299.486279 
L 308.367069 -300.296961 
L 310.753551 -301.088198 
L 313.140033 -301.860359 
L 315.526515 -302.614581 
L 317.912997 -303.35031 
L 320.299479 -304.067881 
L 322.685961 -304.76763 
L 325.072443 -305.366547 
L 325.072443 -322.128868 
L 325.072443 -322.128868 
L 322.685961 -321.794614 
L 320.299479 -321.445424 
L 317.912997 -321.080674 
L 315.526515 -320.692387 
L 313.140033 -320.295806 
L 310.753551 -319.887633 
L 308.367069 -319.45471 
L 305.980587 -319.002831 
L 303.594105 -318.531236 
L 301.207623 -318.049105 
L 298.821141 -317.562451 
L 296.434659 -317.055886 
L 294.048177 -316.523374 
L 291.661695 -315.958428 
L 289.275213 -315.340386 
L 286.888731 -314.656738 
L 284.502249 -313.949848 
L 282.115767 -313.284231 
L 279.729285 -312.61712 
L 277.342803 -311.901438 
L 274.956321 -311.085547 
L 272.569839 -310.232208 
L 270.183357 -309.371107 
L 267.796875 -308.494613 
L 265.410393 -307.528245 
L 263.023911 -306.515719 
L 260.637429 -305.479796 
L 258.250947 -304.430307 
L 255.864465 -303.214857 
L 253.477983 -302.02268 
L 251.091501 -300.936716 
L 248.705019 -299.873695 
L 246.318537 -298.774697 
L 243.932055 -297.505276 
L 241.545573 -296.207489 
L 239.159091 -294.946572 
L 236.772609 -293.537634 
L 234.386127 -292.177951 
L 231.999645 -290.784034 
L 229.613163 -289.434514 
L 227.226681 -287.890604 
L 224.840199 -286.297795 
L 222.453717 -284.605735 
L 220.067235 -282.931265 
L 217.680753 -281.213921 
L 215.294271 -279.42841 
L 212.907789 -277.726758 
L 210.521307 -275.979694 
L 208.134825 -274.196266 
L 205.748343 -272.39677 
L 203.361861 -270.46426 
L 200.975379 -268.3995 
L 198.588897 -266.511669 
L 196.202415 -264.409949 
L 193.815933 -262.523404 
L 191.429451 -260.609433 
L 189.042969 -258.662094 
L 186.656487 -256.773471 
L 184.270005 -254.65503 
L 181.883523 -252.628685 
L 179.497041 -250.549948 
L 177.110559 -248.39153 
L 174.724077 -246.486347 
L 172.337595 -244.295739 
L 169.951113 -242.017325 
L 167.564631 -239.976654 
L 165.178149 -238.008923 
L 162.791667 -236.182083 
L 160.405185 -234.155426 
L 158.018703 -231.987236 
L 155.632221 -230.012918 
L 153.245739 -227.730527 
L 150.859257 -225.833571 
L 148.472775 -223.80677 
L 146.086293 -221.671394 
L 143.699811 -219.487749 
L 141.313329 -217.03395 
L 138.926847 -214.748386 
L 136.540365 -212.397755 
L 134.153883 -210.320847 
L 131.767401 -208.388097 
L 129.380919 -206.43929 
L 126.994437 -203.886929 
L 124.607955 -201.888539 
L 122.221473 -200.118363 
L 119.834991 -198.009519 
L 117.448509 -195.92702 
L 115.062027 -194.12131 
L 112.675545 -192.178941 
L 110.289063 -190.239987 
L 107.902581 -188.301632 
L 105.516099 -186.364647 
L 103.129617 -184.41511 
L 100.743135 -182.111736 
L 98.356653 -179.686473 
L 95.970171 -177.892208 
L 93.583689 -176.143147 
L 91.197207 -173.943481 
L 88.810725 -171.751164 
z
" id="m8184d9e770" style="stroke:#ffffff;stroke-opacity:0.15;"/>
    </defs>
    <g clip-path="url(#p4c499d0673)">
     <use style="fill:#1f77b4;fill-opacity:0.15;stroke:#ffffff;stroke-opacity:0.15;" x="0" xlink:href="#m8184d9e770" y="360"/>
    </g>
   </g>
   <g id="PolyCollection_2">
    <defs>
     <path d="M 88.810725 -121.353225 
L 88.810725 -85.78322 
L 91.197207 -87.693137 
L 93.583689 -89.704936 
L 95.970171 -91.818459 
L 98.356653 -94.036578 
L 100.743135 -96.194261 
L 103.129617 -98.434641 
L 105.516099 -100.767551 
L 107.902581 -103.271046 
L 110.289063 -106.118223 
L 112.675545 -108.967775 
L 115.062027 -111.940936 
L 117.448509 -115.078855 
L 119.834991 -118.344642 
L 122.221473 -121.739387 
L 124.607955 -125.487723 
L 126.994437 -128.926844 
L 129.380919 -132.263508 
L 131.767401 -135.96071 
L 134.153883 -139.307718 
L 136.540365 -143.294032 
L 138.926847 -146.713955 
L 141.313329 -150.685972 
L 143.699811 -154.466324 
L 146.086293 -158.630496 
L 148.472775 -162.49895 
L 150.859257 -166.07099 
L 153.245739 -169.881224 
L 155.632221 -173.883081 
L 158.018703 -177.481554 
L 160.405185 -180.995647 
L 162.791667 -184.697594 
L 165.178149 -188.468853 
L 167.564631 -192.258865 
L 169.951113 -196.039148 
L 172.337595 -199.817423 
L 174.724077 -203.692051 
L 177.110559 -207.673926 
L 179.497041 -211.162144 
L 181.883523 -214.7424 
L 184.270005 -217.927126 
L 186.656487 -221.531007 
L 189.042969 -224.974719 
L 191.429451 -228.218997 
L 193.815933 -231.666075 
L 196.202415 -234.781422 
L 198.588897 -237.89633 
L 200.975379 -241.095291 
L 203.361861 -243.868721 
L 205.748343 -246.739942 
L 208.134825 -249.592384 
L 210.521307 -252.386067 
L 212.907789 -255.3019 
L 215.294271 -257.932217 
L 217.680753 -260.467792 
L 220.067235 -263.006977 
L 222.453717 -265.450727 
L 224.840199 -267.814804 
L 227.226681 -270.063841 
L 229.613163 -272.256484 
L 231.999645 -274.384374 
L 234.386127 -276.50512 
L 236.772609 -278.49715 
L 239.159091 -280.413831 
L 241.545573 -282.30376 
L 243.932055 -284.137883 
L 246.318537 -285.915066 
L 248.705019 -287.633055 
L 251.091501 -289.229405 
L 253.477983 -290.784026 
L 255.864465 -292.288209 
L 258.250947 -293.730498 
L 260.637429 -295.10623 
L 263.023911 -296.436183 
L 265.410393 -297.746531 
L 267.796875 -298.962733 
L 270.183357 -300.121857 
L 272.569839 -301.276182 
L 274.956321 -302.433742 
L 277.342803 -303.509952 
L 279.729285 -304.538337 
L 282.115767 -305.534083 
L 284.502249 -306.510753 
L 286.888731 -307.397129 
L 289.275213 -308.331368 
L 291.661695 -309.169376 
L 294.048177 -309.97658 
L 296.434659 -310.770418 
L 298.821141 -311.535636 
L 301.207623 -312.271984 
L 303.594105 -312.98005 
L 305.980587 -313.660757 
L 308.367069 -314.342185 
L 310.753551 -314.986779 
L 313.140033 -315.620567 
L 315.526515 -316.228263 
L 317.912997 -316.792212 
L 320.299479 -317.30066 
L 322.685961 -317.795289 
L 325.072443 -318.307508 
L 325.072443 -326.983739 
L 325.072443 -326.983739 
L 322.685961 -326.821199 
L 320.299479 -326.647781 
L 317.912997 -326.460865 
L 315.526515 -326.261217 
L 313.140033 -326.04812 
L 310.753551 -325.820691 
L 308.367069 -325.577994 
L 305.980587 -325.318855 
L 303.594105 -325.04224 
L 301.207623 -324.747425 
L 298.821141 -324.43309 
L 296.434659 -324.097767 
L 294.048177 -323.736821 
L 291.661695 -323.341407 
L 289.275213 -322.91899 
L 286.888731 -322.467822 
L 284.502249 -321.986053 
L 282.115767 -321.471735 
L 279.729285 -320.922808 
L 277.342803 -320.337106 
L 274.956321 -319.71235 
L 272.569839 -319.046143 
L 270.183357 -318.346092 
L 267.796875 -317.647516 
L 265.410393 -316.942487 
L 263.023911 -316.21648 
L 260.637429 -315.428773 
L 258.250947 -314.492794 
L 255.864465 -313.497764 
L 253.477983 -312.514052 
L 251.091501 -311.469061 
L 248.705019 -310.325836 
L 246.318537 -309.178563 
L 243.932055 -307.950151 
L 241.545573 -306.650913 
L 239.159091 -305.26862 
L 236.772609 -303.751114 
L 234.386127 -302.314823 
L 231.999645 -300.71646 
L 229.613163 -299.03058 
L 227.226681 -297.165177 
L 224.840199 -295.40058 
L 222.453717 -293.451596 
L 220.067235 -291.345896 
L 217.680753 -289.263526 
L 215.294271 -286.91935 
L 212.907789 -284.57352 
L 210.521307 -282.268256 
L 208.134825 -279.988248 
L 205.748343 -277.440655 
L 203.361861 -274.771156 
L 200.975379 -272.075061 
L 198.588897 -269.284205 
L 196.202415 -266.256788 
L 193.815933 -263.227459 
L 191.429451 -260.202122 
L 189.042969 -256.824684 
L 186.656487 -253.911115 
L 184.270005 -250.562739 
L 181.883523 -247.117904 
L 179.497041 -243.593952 
L 177.110559 -240.155327 
L 174.724077 -236.497138 
L 172.337595 -233.032375 
L 169.951113 -229.2984 
L 167.564631 -225.969277 
L 165.178149 -222.466598 
L 162.791667 -218.804209 
L 160.405185 -215.010259 
L 158.018703 -211.27285 
L 155.632221 -207.530597 
L 153.245739 -204.131573 
L 150.859257 -200.376598 
L 148.472775 -196.233085 
L 146.086293 -192.70348 
L 143.699811 -189.213195 
L 141.313329 -185.887625 
L 138.926847 -182.374218 
L 136.540365 -179.181524 
L 134.153883 -176.130375 
L 131.767401 -172.835722 
L 129.380919 -169.454001 
L 126.994437 -165.951899 
L 124.607955 -162.791996 
L 122.221473 -159.883186 
L 119.834991 -156.699554 
L 117.448509 -153.711383 
L 115.062027 -150.737397 
L 112.675545 -147.89049 
L 110.289063 -144.950702 
L 107.902581 -142.215362 
L 105.516099 -139.422891 
L 103.129617 -136.613138 
L 100.743135 -133.925023 
L 98.356653 -131.24954 
L 95.970171 -128.747867 
L 93.583689 -126.196377 
L 91.197207 -123.733048 
L 88.810725 -121.353225 
z
" id="maa47fd2181" style="stroke:#ffffff;stroke-opacity:0.15;"/>
    </defs>
    <g clip-path="url(#p4c499d0673)">
     <use style="fill:#d62728;fill-opacity:0.15;stroke:#ffffff;stroke-opacity:0.15;" x="0" xlink:href="#maa47fd2181" y="360"/>
    </g>
   </g>
   <g id="PolyCollection_3">
    <defs>
     <path d="M 88.810725 -73.240968 
L 88.810725 -59.449625 
L 91.197207 -59.78211 
L 93.583689 -60.124082 
L 95.970171 -60.45587 
L 98.356653 -60.810644 
L 100.743135 -61.205656 
L 103.129617 -61.603373 
L 105.516099 -62.023009 
L 107.902581 -62.466392 
L 110.289063 -62.968052 
L 112.675545 -63.506157 
L 115.062027 -64.033992 
L 117.448509 -64.589332 
L 119.834991 -65.17446 
L 122.221473 -65.790824 
L 124.607955 -66.462735 
L 126.994437 -67.18285 
L 129.380919 -67.995554 
L 131.767401 -68.726801 
L 134.153883 -69.54359 
L 136.540365 -70.42063 
L 138.926847 -71.357702 
L 141.313329 -72.354337 
L 143.699811 -73.337551 
L 146.086293 -74.382813 
L 148.472775 -75.455596 
L 150.859257 -76.580151 
L 153.245739 -77.758653 
L 155.632221 -78.99786 
L 158.018703 -80.411839 
L 160.405185 -81.879075 
L 162.791667 -83.441202 
L 165.178149 -85.113051 
L 167.564631 -86.661224 
L 169.951113 -88.181537 
L 172.337595 -90.016374 
L 174.724077 -91.683321 
L 177.110559 -93.586872 
L 179.497041 -95.598704 
L 181.883523 -97.611693 
L 184.270005 -99.577334 
L 186.656487 -101.618192 
L 189.042969 -103.768126 
L 191.429451 -105.924114 
L 193.815933 -108.169743 
L 196.202415 -110.604728 
L 198.588897 -112.871063 
L 200.975379 -115.569322 
L 203.361861 -118.313088 
L 205.748343 -120.952518 
L 208.134825 -123.81747 
L 210.521307 -126.761419 
L 212.907789 -129.783025 
L 215.294271 -132.70112 
L 217.680753 -135.75141 
L 220.067235 -138.809851 
L 222.453717 -142.044157 
L 224.840199 -145.290073 
L 227.226681 -148.479807 
L 229.613163 -151.655446 
L 231.999645 -154.904538 
L 234.386127 -158.024897 
L 236.772609 -161.171006 
L 239.159091 -164.465683 
L 241.545573 -167.746201 
L 243.932055 -171.069658 
L 246.318537 -174.414643 
L 248.705019 -177.705925 
L 251.091501 -181.135208 
L 253.477983 -184.407819 
L 255.864465 -187.682202 
L 258.250947 -191.029497 
L 260.637429 -194.278303 
L 263.023911 -197.736129 
L 265.410393 -200.858083 
L 267.796875 -203.880794 
L 270.183357 -207.028393 
L 272.569839 -210.172257 
L 274.956321 -213.137131 
L 277.342803 -216.117167 
L 279.729285 -218.971634 
L 282.115767 -221.921632 
L 284.502249 -224.842223 
L 286.888731 -227.473648 
L 289.275213 -230.228231 
L 291.661695 -233.015063 
L 294.048177 -235.601769 
L 296.434659 -238.320513 
L 298.821141 -240.624138 
L 301.207623 -243.087397 
L 303.594105 -245.506742 
L 305.980587 -247.935164 
L 308.367069 -250.335987 
L 310.753551 -252.694044 
L 313.140033 -254.809347 
L 315.526515 -256.904461 
L 317.912997 -259.024341 
L 320.299479 -261.121763 
L 322.685961 -263.289179 
L 325.072443 -265.542679 
L 325.072443 -298.563973 
L 325.072443 -298.563973 
L 322.685961 -296.965825 
L 320.299479 -295.108165 
L 317.912997 -293.454985 
L 315.526515 -291.658695 
L 313.140033 -289.762284 
L 310.753551 -287.822522 
L 308.367069 -285.754011 
L 305.980587 -283.601677 
L 303.594105 -281.23477 
L 301.207623 -278.823605 
L 298.821141 -276.296069 
L 296.434659 -273.662298 
L 294.048177 -270.932234 
L 291.661695 -268.410426 
L 289.275213 -265.892461 
L 286.888731 -263.332751 
L 284.502249 -260.508151 
L 282.115767 -257.68426 
L 279.729285 -254.877348 
L 277.342803 -251.586255 
L 274.956321 -248.723286 
L 272.569839 -245.69447 
L 270.183357 -242.366497 
L 267.796875 -238.966491 
L 265.410393 -235.674933 
L 263.023911 -232.418682 
L 260.637429 -229.06765 
L 258.250947 -225.532774 
L 255.864465 -222.059211 
L 253.477983 -218.591299 
L 251.091501 -214.748988 
L 248.705019 -211.522797 
L 246.318537 -207.865796 
L 243.932055 -204.438865 
L 241.545573 -200.85068 
L 239.159091 -197.212579 
L 236.772609 -193.78201 
L 234.386127 -190.543154 
L 231.999645 -187.132464 
L 229.613163 -183.79062 
L 227.226681 -180.683991 
L 224.840199 -177.60189 
L 222.453717 -174.500475 
L 220.067235 -171.18416 
L 217.680753 -168.217774 
L 215.294271 -164.976974 
L 212.907789 -161.930178 
L 210.521307 -158.942778 
L 208.134825 -155.750318 
L 205.748343 -152.860244 
L 203.361861 -150.102571 
L 200.975379 -147.309488 
L 198.588897 -144.530111 
L 196.202415 -141.896346 
L 193.815933 -139.442941 
L 191.429451 -137.018268 
L 189.042969 -134.592389 
L 186.656487 -131.983701 
L 184.270005 -129.488498 
L 181.883523 -127.110718 
L 179.497041 -124.982535 
L 177.110559 -122.716747 
L 174.724077 -120.550329 
L 172.337595 -118.505774 
L 169.951113 -116.50534 
L 167.564631 -114.529024 
L 165.178149 -112.47396 
L 162.791667 -110.572931 
L 160.405185 -108.748231 
L 158.018703 -107.011162 
L 155.632221 -105.235112 
L 153.245739 -103.545717 
L 150.859257 -101.957071 
L 148.472775 -100.41859 
L 146.086293 -98.833707 
L 143.699811 -97.319482 
L 141.313329 -95.930793 
L 138.926847 -94.501451 
L 136.540365 -93.112002 
L 134.153883 -91.760359 
L 131.767401 -90.512301 
L 129.380919 -89.326835 
L 126.994437 -88.126396 
L 124.607955 -86.95911 
L 122.221473 -85.826562 
L 119.834991 -84.725487 
L 117.448509 -83.637378 
L 115.062027 -82.614711 
L 112.675545 -81.574077 
L 110.289063 -80.639621 
L 107.902581 -79.726247 
L 105.516099 -78.818963 
L 103.129617 -77.94075 
L 100.743135 -77.090891 
L 98.356653 -76.268672 
L 95.970171 -75.473383 
L 93.583689 -74.704318 
L 91.197207 -73.960777 
L 88.810725 -73.240968 
z
" id="m9227e9f6ee" style="stroke:#ffffff;stroke-opacity:0.15;"/>
    </defs>
    <g clip-path="url(#p4c499d0673)">
     <use style="fill:#2ca02c;fill-opacity:0.15;stroke:#ffffff;stroke-opacity:0.15;" x="0" xlink:href="#m9227e9f6ee" y="360"/>
    </g>
   </g>
   <g id="line2d_1">
    <path clip-path="url(#p4c499d0673)" d="M 88.810725 218.040901 
L 91.197207 215.799728 
L 93.583689 213.529554 
L 95.970171 211.231413 
L 98.356653 208.906406 
L 100.743135 206.555699 
L 103.129617 204.180516 
L 105.516099 201.782144 
L 107.902581 199.361928 
L 110.289063 196.921264 
L 112.675545 194.461605 
L 115.062027 191.984451 
L 117.448509 189.491349 
L 119.834991 186.983885 
L 122.221473 184.463687 
L 124.607955 181.932416 
L 126.994437 179.391762 
L 129.380919 176.843443 
L 131.767401 174.289195 
L 134.153883 171.730773 
L 136.540365 169.169942 
L 138.926847 166.608474 
L 141.313329 164.048142 
L 143.699811 161.490718 
L 146.086293 158.937963 
L 148.472775 156.391629 
L 150.859257 153.853446 
L 153.245739 151.325124 
L 155.632221 148.808347 
L 158.018703 146.304766 
L 160.405185 143.815998 
L 162.791667 141.343618 
L 165.178149 138.889161 
L 167.564631 136.454113 
L 169.951113 134.039911 
L 172.337595 131.647939 
L 174.724077 129.279524 
L 177.110559 126.935936 
L 179.497041 124.618383 
L 181.883523 122.328012 
L 184.270005 120.065906 
L 186.656487 117.833082 
L 189.042969 115.630492 
L 191.429451 113.459019 
L 193.815933 111.319481 
L 196.202415 109.212628 
L 198.588897 107.139141 
L 200.975379 105.099637 
L 203.361861 103.094664 
L 205.748343 101.124707 
L 208.134825 99.190183 
L 210.521307 97.291451 
L 212.907789 95.428804 
L 215.294271 93.602476 
L 217.680753 91.812644 
L 220.067235 90.059426 
L 222.453717 88.342889 
L 224.840199 86.663044 
L 227.226681 85.019855 
L 229.613163 83.413234 
L 231.999645 81.843051 
L 234.386127 80.309131 
L 236.772609 78.811258 
L 239.159091 77.349177 
L 241.545573 75.922597 
L 243.932055 74.531192 
L 246.318537 73.174607 
L 248.705019 71.852455 
L 251.091501 70.564323 
L 253.477983 69.309772 
L 255.864465 68.088342 
L 258.250947 66.89955 
L 260.637429 65.742897 
L 263.023911 64.617866 
L 265.410393 63.523925 
L 267.796875 62.46053 
L 270.183357 61.427125 
L 272.569839 60.423144 
L 274.956321 59.448015 
L 277.342803 58.501159 
L 279.729285 57.581991 
L 282.115767 56.689923 
L 284.502249 55.824365 
L 286.888731 54.984726 
L 289.275213 54.170415 
L 291.661695 53.380842 
L 294.048177 52.615418 
L 296.434659 51.873558 
L 298.821141 51.154682 
L 301.207623 50.458213 
L 303.594105 49.783579 
L 305.980587 49.130215 
L 308.367069 48.497563 
L 310.753551 47.88507 
L 313.140033 47.292192 
L 315.526515 46.718394 
L 317.912997 46.163147 
L 320.299479 45.625932 
L 322.685961 45.10624 
L 325.072443 44.603569 
" style="fill:none;stroke:#1f77b4;stroke-linecap:round;stroke-width:2.25;"/>
   </g>
   <g id="line2d_2">
    <path clip-path="url(#p4c499d0673)" d="M 88.810725 256.829378 
L 91.197207 254.615815 
L 93.583689 252.326022 
L 95.970171 249.959501 
L 98.356653 247.515949 
L 100.743135 244.995274 
L 103.129617 242.397612 
L 105.516099 239.723334 
L 107.902581 236.973068 
L 110.289063 234.147703 
L 112.675545 231.2484 
L 115.062027 228.276604 
L 117.448509 225.234051 
L 119.834991 222.122768 
L 122.221473 218.945082 
L 124.607955 215.703616 
L 126.994437 212.401288 
L 129.380919 209.041309 
L 131.767401 205.627172 
L 134.153883 202.162643 
L 136.540365 198.651752 
L 138.926847 195.098769 
L 141.313329 191.508196 
L 143.699811 187.884739 
L 146.086293 184.233285 
L 148.472775 180.558882 
L 150.859257 176.866707 
L 153.245739 173.16204 
L 155.632221 169.450234 
L 158.018703 165.73668 
L 160.405185 162.026784 
L 162.791667 158.325926 
L 165.178149 154.639437 
L 167.564631 150.972564 
L 169.951113 147.330441 
L 172.337595 143.718063 
L 174.724077 140.140255 
L 177.110559 136.601655 
L 179.497041 133.106682 
L 181.883523 129.659527 
L 184.270005 126.264125 
L 186.656487 122.924148 
L 189.042969 119.642991 
L 191.429451 116.423761 
L 193.815933 113.269272 
L 196.202415 110.182044 
L 198.588897 107.164296 
L 200.975379 104.217953 
L 203.361861 101.344646 
L 205.748343 98.545719 
L 208.134825 95.822238 
L 210.521307 93.174995 
L 212.907789 90.604528 
L 215.294271 88.111123 
L 217.680753 85.694833 
L 220.067235 83.35549 
L 222.453717 81.092721 
L 224.840199 78.905961 
L 227.226681 76.794467 
L 229.613163 74.757335 
L 231.999645 72.793518 
L 234.386127 70.901832 
L 236.772609 69.08098 
L 239.159091 67.329561 
L 241.545573 65.646083 
L 243.932055 64.028979 
L 246.318537 62.476617 
L 248.705019 60.987312 
L 251.091501 59.559336 
L 253.477983 58.190931 
L 255.864465 56.880314 
L 258.250947 55.625691 
L 260.637429 54.42526 
L 263.023911 53.277221 
L 265.410393 52.179782 
L 267.796875 51.131163 
L 270.183357 50.129605 
L 272.569839 49.173372 
L 274.956321 48.260755 
L 277.342803 47.390076 
L 279.729285 46.559691 
L 282.115767 45.767994 
L 284.502249 45.013416 
L 286.888731 44.29443 
L 289.275213 43.609551 
L 291.661695 42.957335 
L 294.048177 42.336384 
L 296.434659 41.745342 
L 298.821141 41.182901 
L 301.207623 40.647793 
L 303.594105 40.138797 
L 305.980587 39.654736 
L 308.367069 39.194476 
L 310.753551 38.756925 
L 313.140033 38.341034 
L 315.526515 37.945795 
L 317.912997 37.570242 
L 320.299479 37.213446 
L 322.685961 36.874518 
L 325.072443 36.552606 
" style="fill:none;stroke:#d62728;stroke-linecap:round;stroke-width:2.25;"/>
   </g>
   <g id="line2d_3">
    <path clip-path="url(#p4c499d0673)" d="M 88.810725 295.04463 
L 91.197207 294.5304 
L 93.583689 293.992881 
L 95.970171 293.431124 
L 98.356653 292.844152 
L 100.743135 292.230959 
L 103.129617 291.590512 
L 105.516099 290.921749 
L 107.902581 290.223584 
L 110.289063 289.494901 
L 112.675545 288.734561 
L 115.062027 287.9414 
L 117.448509 287.114232 
L 119.834991 286.251849 
L 122.221473 285.353023 
L 124.607955 284.416511 
L 126.994437 283.441052 
L 129.380919 282.425375 
L 131.767401 281.368198 
L 134.153883 280.268234 
L 136.540365 279.124192 
L 138.926847 277.934783 
L 141.313329 276.698725 
L 143.699811 275.414745 
L 146.086293 274.081585 
L 148.472775 272.698009 
L 150.859257 271.262807 
L 153.245739 269.774803 
L 155.632221 268.232859 
L 158.018703 266.635882 
L 160.405185 264.982837 
L 162.791667 263.272746 
L 165.178149 261.504701 
L 167.564631 259.677873 
L 169.951113 257.791514 
L 172.337595 255.844976 
L 174.724077 253.837707 
L 177.110559 251.769272 
L 179.497041 249.639351 
L 181.883523 247.447755 
L 184.270005 245.194431 
L 186.656487 242.87947 
L 189.042969 240.503118 
L 191.429451 238.065779 
L 193.815933 235.568023 
L 196.202415 233.010594 
L 198.588897 230.394416 
L 200.975379 227.720592 
L 203.361861 224.990414 
L 205.748343 222.205363 
L 208.134825 219.36711 
L 210.521307 216.477515 
L 212.907789 213.538631 
L 215.294271 210.552696 
L 217.680753 207.522132 
L 220.067235 204.449539 
L 222.453717 201.33769 
L 224.840199 198.189521 
L 227.226681 195.008122 
L 229.613163 191.796728 
L 231.999645 188.558705 
L 234.386127 185.297538 
L 236.772609 182.016815 
L 239.159091 178.720214 
L 241.545573 175.411486 
L 243.932055 172.094438 
L 246.318537 168.772915 
L 248.705019 165.450782 
L 251.091501 162.131909 
L 253.477983 158.820149 
L 255.864465 155.519324 
L 258.250947 152.233203 
L 260.637429 148.965488 
L 263.023911 145.719799 
L 265.410393 142.499654 
L 267.796875 139.308458 
L 270.183357 136.149489 
L 272.569839 133.025883 
L 274.956321 129.940627 
L 277.342803 126.896545 
L 279.729285 123.896292 
L 282.115767 120.942347 
L 284.502249 118.037008 
L 286.888731 115.182384 
L 289.275213 112.380397 
L 291.661695 109.632778 
L 294.048177 106.941068 
L 296.434659 104.306616 
L 298.821141 101.730587 
L 301.207623 99.213959 
L 303.594105 96.757533 
L 305.980587 94.361932 
L 308.367069 92.027614 
L 310.753551 89.754871 
L 313.140033 87.543844 
L 315.526515 85.394524 
L 317.912997 83.306763 
L 320.299479 81.280282 
L 322.685961 79.314682 
L 325.072443 77.409446 
" style="fill:none;stroke:#2ca02c;stroke-linecap:round;stroke-width:2.25;"/>
   </g>
   <g id="line2d_4">
    <path clip-path="url(#p4c499d0673)" d="M 71.934887 168.25 
L 341.94828 168.25 
" style="fill:none;stroke:#808080;stroke-linecap:round;stroke-width:2;"/>
   </g>
   <g id="line2d_5">
    <path clip-path="url(#p4c499d0673)" d="M 190.065747 305.888182 
L 190.065747 30.611818 
" style="fill:none;stroke:#808080;stroke-linecap:round;stroke-width:2;"/>
   </g>
   <g id="patch_3">
    <path d="M 58.434218 319.652 
L 58.434218 16.848 
" style="fill:none;stroke:#262626;stroke-linecap:square;stroke-linejoin:miter;stroke-width:1.25;"/>
   </g>
   <g id="patch_4">
    <path d="M 58.434218 319.652 
L 355.44895 319.652 
" style="fill:none;stroke:#262626;stroke-linecap:square;stroke-linejoin:miter;stroke-width:1.25;"/>
   </g>
  </g>
  <g id="legend_1">
   <g id="text_13">
    <!-- Distribution -->
    <g style="fill:#262626;" transform="translate(361.348289 153.691148)scale(0.156 -0.156)">
     <defs>
      <path d="M 494 0 
L 494 4581 
L 2072 4581 
Q 2606 4581 2888 4516 
Q 3281 4425 3559 4188 
Q 3922 3881 4101 3404 
Q 4281 2928 4281 2316 
Q 4281 1794 4159 1391 
Q 4038 988 3847 723 
Q 3656 459 3429 307 
Q 3203 156 2883 78 
Q 2563 0 2147 0 
L 494 0 
z
M 1100 541 
L 2078 541 
Q 2531 541 2789 625 
Q 3047 709 3200 863 
Q 3416 1078 3536 1442 
Q 3656 1806 3656 2325 
Q 3656 3044 3420 3430 
Q 3184 3816 2847 3947 
Q 2603 4041 2063 4041 
L 1100 4041 
L 1100 541 
z
" id="ArialMT-44" transform="scale(0.015625)"/>
      <path d="M 941 0 
L 419 0 
L 419 4581 
L 981 4581 
L 981 2947 
Q 1338 3394 1891 3394 
Q 2197 3394 2470 3270 
Q 2744 3147 2920 2923 
Q 3097 2700 3197 2384 
Q 3297 2069 3297 1709 
Q 3297 856 2875 390 
Q 2453 -75 1863 -75 
Q 1275 -75 941 416 
L 941 0 
z
M 934 1684 
Q 934 1088 1097 822 
Q 1363 388 1816 388 
Q 2184 388 2453 708 
Q 2722 1028 2722 1663 
Q 2722 2313 2464 2622 
Q 2206 2931 1841 2931 
Q 1472 2931 1203 2611 
Q 934 2291 934 1684 
z
" id="ArialMT-62" transform="scale(0.015625)"/>
      <path d="M 2597 0 
L 2597 488 
Q 2209 -75 1544 -75 
Q 1250 -75 995 37 
Q 741 150 617 320 
Q 494 491 444 738 
Q 409 903 409 1263 
L 409 3319 
L 972 3319 
L 972 1478 
Q 972 1038 1006 884 
Q 1059 663 1231 536 
Q 1403 409 1656 409 
Q 1909 409 2131 539 
Q 2353 669 2445 892 
Q 2538 1116 2538 1541 
L 2538 3319 
L 3100 3319 
L 3100 0 
L 2597 0 
z
" id="ArialMT-75" transform="scale(0.015625)"/>
     </defs>
     <use xlink:href="#ArialMT-44"/>
     <use x="72.216797" xlink:href="#ArialMT-69"/>
     <use x="94.433594" xlink:href="#ArialMT-73"/>
     <use x="144.433594" xlink:href="#ArialMT-74"/>
     <use x="172.216797" xlink:href="#ArialMT-72"/>
     <use x="205.517578" xlink:href="#ArialMT-69"/>
     <use x="227.734375" xlink:href="#ArialMT-62"/>
     <use x="283.349609" xlink:href="#ArialMT-75"/>
     <use x="338.964844" xlink:href="#ArialMT-74"/>
     <use x="366.748047" xlink:href="#ArialMT-69"/>
     <use x="388.964844" xlink:href="#ArialMT-6f"/>
     <use x="444.580078" xlink:href="#ArialMT-6e"/>
    </g>
   </g>
   <g id="line2d_6">
    <path d="M 358.488391 169.17232 
L 387.088391 169.17232 
" style="fill:none;stroke:#1f77b4;stroke-linecap:round;stroke-width:2.25;"/>
   </g>
   <g id="line2d_7"/>
   <g id="text_14">
    <!-- wide -->
    <g style="fill:#262626;" transform="translate(398.528391 174.17732)scale(0.143 -0.143)">
     <defs>
      <path d="M 1034 0 
L 19 3319 
L 600 3319 
L 1128 1403 
L 1325 691 
Q 1338 744 1497 1375 
L 2025 3319 
L 2603 3319 
L 3100 1394 
L 3266 759 
L 3456 1400 
L 4025 3319 
L 4572 3319 
L 3534 0 
L 2950 0 
L 2422 1988 
L 2294 2553 
L 1622 0 
L 1034 0 
z
" id="ArialMT-77" transform="scale(0.015625)"/>
      <path d="M 2575 0 
L 2575 419 
Q 2259 -75 1647 -75 
Q 1250 -75 917 144 
Q 584 363 401 755 
Q 219 1147 219 1656 
Q 219 2153 384 2558 
Q 550 2963 881 3178 
Q 1213 3394 1622 3394 
Q 1922 3394 2156 3267 
Q 2391 3141 2538 2938 
L 2538 4581 
L 3097 4581 
L 3097 0 
L 2575 0 
z
M 797 1656 
Q 797 1019 1065 703 
Q 1334 388 1700 388 
Q 2069 388 2326 689 
Q 2584 991 2584 1609 
Q 2584 2291 2321 2609 
Q 2059 2928 1675 2928 
Q 1300 2928 1048 2622 
Q 797 2316 797 1656 
z
" id="ArialMT-64" transform="scale(0.015625)"/>
     </defs>
     <use xlink:href="#ArialMT-77"/>
     <use x="72.216797" xlink:href="#ArialMT-69"/>
     <use x="94.433594" xlink:href="#ArialMT-64"/>
     <use x="150.048828" xlink:href="#ArialMT-65"/>
    </g>
   </g>
   <g id="line2d_8">
    <path d="M 358.488391 189.400117 
L 387.088391 189.400117 
" style="fill:none;stroke:#d62728;stroke-linecap:round;stroke-width:2.25;"/>
   </g>
   <g id="line2d_9"/>
   <g id="text_15">
    <!-- narrow -->
    <g style="fill:#262626;" transform="translate(398.528391 194.405117)scale(0.143 -0.143)">
     <defs>
      <path d="M 2588 409 
Q 2275 144 1986 34 
Q 1697 -75 1366 -75 
Q 819 -75 525 192 
Q 231 459 231 875 
Q 231 1119 342 1320 
Q 453 1522 633 1644 
Q 813 1766 1038 1828 
Q 1203 1872 1538 1913 
Q 2219 1994 2541 2106 
Q 2544 2222 2544 2253 
Q 2544 2597 2384 2738 
Q 2169 2928 1744 2928 
Q 1347 2928 1158 2789 
Q 969 2650 878 2297 
L 328 2372 
Q 403 2725 575 2942 
Q 747 3159 1072 3276 
Q 1397 3394 1825 3394 
Q 2250 3394 2515 3294 
Q 2781 3194 2906 3042 
Q 3031 2891 3081 2659 
Q 3109 2516 3109 2141 
L 3109 1391 
Q 3109 606 3145 398 
Q 3181 191 3288 0 
L 2700 0 
Q 2613 175 2588 409 
z
M 2541 1666 
Q 2234 1541 1622 1453 
Q 1275 1403 1131 1340 
Q 988 1278 909 1158 
Q 831 1038 831 891 
Q 831 666 1001 516 
Q 1172 366 1500 366 
Q 1825 366 2078 508 
Q 2331 650 2450 897 
Q 2541 1088 2541 1459 
L 2541 1666 
z
" id="ArialMT-61" transform="scale(0.015625)"/>
     </defs>
     <use xlink:href="#ArialMT-6e"/>
     <use x="55.615234" xlink:href="#ArialMT-61"/>
     <use x="111.230469" xlink:href="#ArialMT-72"/>
     <use x="144.53125" xlink:href="#ArialMT-72"/>
     <use x="177.832031" xlink:href="#ArialMT-6f"/>
     <use x="233.447266" xlink:href="#ArialMT-77"/>
    </g>
   </g>
   <g id="line2d_10">
    <path d="M 358.488391 209.627914 
L 387.088391 209.627914 
" style="fill:none;stroke:#2ca02c;stroke-linecap:round;stroke-width:2.25;"/>
   </g>
   <g id="line2d_11"/>
   <g id="text_16">
    <!-- skew -->
    <g style="fill:#262626;" transform="translate(398.528391 214.632914)scale(0.143 -0.143)">
     <use xlink:href="#ArialMT-73"/>
     <use x="50" xlink:href="#ArialMT-6b"/>
     <use x="100" xlink:href="#ArialMT-65"/>
     <use x="155.615234" xlink:href="#ArialMT-77"/>
    </g>
   </g>
  </g>
 </g>
 <defs>
  <clipPath id="p4c499d0673">
   <rect height="302.804" width="297.014732" x="58.434218" y="16.848"/>
  </clipPath>
 </defs>
</svg>
